# xmcd CD database file
#
# Track frame offsets:
#	150
#	17072
#	34925
#	50512
#	65672
#	86927
#	114660
#	134332
#	152657
#	168277
#	185852
#
# Disc length: 2820 seconds
#
# Revision: 1
# Processed by: cddbd v1.5.2PL0 Copyright (c) Steve Scherf et al.
# Submitted via: CDex 1.70beta2
#
DISCID=9c0b020b
DTITLE=相曽晴日 - 月の子供
DYEAR=2000
DGENRE=JPop
TTITLE0=月の子供
TTITLE1=蒼く輝く三日月の夜に
TTITLE2=LUNA
TTITLE3=夜明けに降る雪
TTITLE4=潮風の中で
TTITLE5=プラネタリウムの丘
TTITLE6=Stranger's wind
TTITLE7=風になりたい
TTITLE8=Love2 大事2
TTITLE9=世界でいちばんっ
TTITLE10=名無し
EXTD=YEAR: 2000
EXTT0=
EXTT1=
EXTT2=
EXTT3=
EXTT4=
EXTT5=
EXTT6=
EXTT7=
EXTT8=
EXTT9=
EXTT10=
PLAYORDER=
